<svg xmlns="http://www.w3.org/2000/svg" width="105.39" height="28.88"><path d="M0 0a2.15 2.15 0 0 1-.22-.168l-.021-.017-.045-.034-.047-.034a.852.852 0 0 0-.099-.066.93.93 0 0 0-.053-.032.694.694 0 0 0-.054-.031l-.055-.03-.057-.029-.059-.027-.06-.027-.061-.025-.061-.023-.06-.021-.06-.019-.06-.017a1.29 1.29 0 0 0-.059-.016L-1.19-.63l-.057-.012-.058-.01c-.23-.04-.47-.06-.717-.062h-.183C-3.4-.685-4.396-.293-5.195.463c-.798.756-1.212 1.703-1.243 2.842v4.479c.031 1.139.445 2.086 1.243 2.842.799.755 1.795 1.148 2.99 1.176h.235c.226-.004.437-.019.633-.046l.057-.009.059-.011.06-.013.061-.014.061-.016.061-.018.062-.02.062-.021a3.912 3.912 0 0 0 .18-.074l.057-.027.056-.028.054-.029.052-.029.016-.01.022-.014.022-.015.023-.014.021-.015.021-.015.021-.015.021-.014.02-.016.02-.015.019-.015.019-.015.019-.016.018-.015.018-.016.017-.016.017-.015.017-.016s.015-.015.034-.028a.204.204 0 0 1 .117-.033c.015 0 .03.001.044.004.015.003.028.008.042.013a.27.27 0 0 1 .07.048.198.198 0 0 1 .047.07.232.232 0 0 1 .019.086c-.002.147-.005.348.161.397.099.029.22.015.319.015h1.512c.154 0 .386.038.45-.151.048-.14.016-.433.016-.583V4.037l-.001-2.569c0-.848.034-1.705-.061-2.55-.267-2.355-1.444-4.356-3.935-4.795-1.508-.265-3.011.272-4.175 1.233-.142.117-.438.314-.426.516a.326.326 0 0 0 .086.19s.966 1.021 1.036 1.11c.069.076.165.185.272.185.152-.001.311-.143.587-.305.47-.276.974-.529 1.51-.609a2.322 2.322 0 0 1 1.033.101C-.084-3.047.266-1.452.339-.202v.021l-.001.022a1.215 1.215 0 0 1-.003.022l-.006.021-.007.02-.009.019-.011.018a.192.192 0 0 1-.042.046L.243 0 .225.011a.344.344 0 0 1-.039.016L.165.033.143.036.121.037.099.036.077.033.056.027A.159.159 0 0 1 .036.02.647.647 0 0 1 0 0m.265 3.272v4.496c-.019.598-.235.971-.65 1.306-.414.334-.803.505-1.392.51h-.228c-.612-.014-1.012-.215-1.424-.601-.413-.386-.627-.777-.643-1.36V3.465c.016-.582.23-.973.643-1.359.412-.386.812-.587 1.424-.601h.228c.589.008.978.179 1.392.513.415.334.631.69.65 1.254" style="fill:#da1c23;fill-opacity:1;fill-rule:nonzero;stroke:none" transform="matrix(1.25 0 0 -1.25 9.047 20.448)"/><path d="M0 0v1.644c-.001.096-.026.165-.076.209a.28.28 0 0 1-.198.065h-4.528c-.109.001-.186.02-.233.059a.193.193 0 0 0-.072.154.388.388 0 0 0 .058.199l4.961 9.363a.62.62 0 0 1 .038.096.36.36 0 0 1 .017.096c-.005.141-.105.214-.302.219h-8.127c-.187.004-.279-.087-.274-.274v-1.645c-.005-.187.087-.278.274-.274h4.245a.386.386 0 0 0 .226-.055.196.196 0 0 0 .076-.164.406.406 0 0 0-.017-.096.62.62 0 0 0-.038-.096L-8.983.137a.62.62 0 0 1-.038-.096.36.36 0 0 1-.017-.096c.004-.141.105-.214.302-.219h8.462c.095-.001.165.021.209.065C-.021-.165 0-.095 0 0" style="fill:#da1c23;fill-opacity:1;fill-rule:nonzero;stroke:none" transform="matrix(1.25 0 0 -1.25 33.778 20.98)"/><path d="M0 0a.33.33 0 0 1 .081-.207C.135-.261.218-.289.33-.292h1.711c.112.003.195.031.249.085.046.046.08.115.08.204v1.951c-.003.113-.029.199-.083.253-.054.054-.137.082-.249.086h-.136a.361.361 0 0 1-.293-.127L.173.557.104.476a.368.368 0 0 1-.106-.26V.047L0 0" style="fill:#da1c23;fill-opacity:1;fill-rule:nonzero;stroke:none" transform="matrix(1.25 0 0 -1.25 16.206 3.86)"/><path d="M0 0c0 .097-.024.173-.068.22-.048.049-.124.074-.227.073h-1.781c-.103-.001-.178-.03-.226-.085A.307.307 0 0 1-2.372 0v-.049l-.001-6.691.002-5.062c0-.097.024-.173.069-.22.047-.049.123-.073.226-.073h1.781c.103.001.179.03.226.085a.307.307 0 0 1 .069.208V0z" style="fill:#da1c23;fill-opacity:1;fill-rule:nonzero;stroke:none" transform="matrix(1.25 0 0 -1.25 19.154 6.203)"/><path d="M0 0c0 .055-.017.096-.052.124a.183.183 0 0 1-.113.041.183.183 0 0 1-.113-.041C-.313.096-.33.055-.33 0v-1.146h-1.028V0c0 .055-.018.096-.053.124a.178.178 0 0 1-.112.041.18.18 0 0 1-.113-.041C-1.671.096-1.688.055-1.688 0v-2.721c0-.055.017-.096.052-.122a.182.182 0 0 1 .225 0c.035.026.053.067.053.122v1.246H-.33v-1.246c0-.058.017-.099.052-.124a.198.198 0 0 1 .113-.037c.04 0 .078.013.113.037.035.025.052.066.052.124V0zm-2.832-2.184a.356.356 0 0 0-.109-.26.36.36 0 0 0-.264-.108h-.039a.394.394 0 0 0-.259.091.306.306 0 0 0-.11.251v.805c0 .101.036.182.11.242.074.061.16.091.259.091h.039a.36.36 0 0 0 .264-.108.356.356 0 0 0 .109-.26v-.744zm.33.743a.67.67 0 0 1-.055.271.686.686 0 0 1-.373.374.699.699 0 0 1-.275.054h-.031a.639.639 0 0 1-.217-.037.354.354 0 0 1-.16-.106V0c0 .055-.018.096-.052.124a.183.183 0 0 1-.113.041.18.18 0 0 1-.113-.041C-3.926.096-3.943.055-3.943 0v-2.73c0-.052.017-.09.052-.115a.196.196 0 0 1 .113-.037c.037 0 .072.011.104.031.031.021.05.053.056.097a.439.439 0 0 1 .141-.088.609.609 0 0 1 .233-.04h.039a.71.71 0 0 1 .646.421.672.672 0 0 1 .057.274v.746zm-2.243.005c0 .118-.02.222-.057.31a.598.598 0 0 1-.377.343.869.869 0 0 1-.265.041h-.039a.683.683 0 0 1-.302-.067.76.76 0 0 1-.236-.18.776.776 0 0 1-.237.18.686.686 0 0 1-.302.067h-.039a.641.641 0 0 1-.212-.035.415.415 0 0 1-.161-.095.146.146 0 0 1-.061.097.173.173 0 0 1-.099.033.184.184 0 0 1-.118-.043.153.153 0 0 1-.052-.122v-1.814c0-.055.018-.096.052-.122a.184.184 0 0 1 .226 0c.035.026.052.067.052.122v1.315c0 .101.037.182.113.243a.4.4 0 0 0 .26.091h.039a.368.368 0 0 0 .265-.104.359.359 0 0 0 .109-.269v-1.267c0-.058.017-.101.052-.128a.174.174 0 0 1 .113-.042c.04 0 .078.014.112.042.035.027.052.07.052.128v1.267c0 .107.036.196.109.267a.364.364 0 0 0 .265.106h.039c.11 0 .198-.03.266-.091.069-.061.103-.152.103-.273v-1.285c0-.055.017-.096.052-.122a.182.182 0 0 1 .225 0c.035.026.053.067.053.122v1.285zm-3.352.047a.157.157 0 0 1-.049.115.157.157 0 0 1-.115.05h-.621c-.055 0-.096-.017-.124-.052a.18.18 0 0 1-.041-.113c0-.04.014-.078.041-.113.028-.034.069-.052.124-.052h.456v-.505a.476.476 0 0 0-.145-.348.524.524 0 0 0-.157-.106.476.476 0 0 0-.193-.039h-.044a.5.5 0 0 0-.494.494v1.404c0 .066.013.129.039.188a.507.507 0 0 0 .263.262.467.467 0 0 0 .192.039h.044c.142 0 .254-.04.337-.121a.566.566 0 0 0 .158-.304.156.156 0 0 1 .06-.107.178.178 0 0 1 .217.009c.035.028.052.067.052.12v.026a.808.808 0 0 1-.527.653.823.823 0 0 1-.297.054h-.044a.815.815 0 0 1-.583-.241.824.824 0 0 1-.241-.584v-1.402a.81.81 0 0 1 .503-.757.831.831 0 0 1 .321-.063h.044a.828.828 0 0 1 .584.237c.073.074.132.16.175.26.044.1.065.208.065.323v.673zm-3.434.51c-.034.184-.08.356-.137.517a2.46 2.46 0 0 1-.207.438 1.604 1.604 0 0 1-.258.332.155.155 0 0 1-.113.052.186.186 0 0 1-.112-.048.156.156 0 0 1-.053-.112.15.15 0 0 1 .048-.105c.075-.072.147-.165.215-.277.068-.113.128-.241.18-.382a2.88 2.88 0 0 0 .122-1.511 2.874 2.874 0 0 0-.128-.464 2.166 2.166 0 0 0-.185-.38 1.418 1.418 0 0 0-.217-.275.15.15 0 0 1-.048-.105c0-.04.018-.078.053-.112a.168.168 0 0 1 .117-.052c.038 0 .073.017.108.052.093.089.179.199.261.329.081.131.151.276.21.437a3.232 3.232 0 0 1 .144 1.666m-1.495-1.703c-.028.034-.069.052-.124.052h-1.094l1.233 2.365a.24.24 0 0 1 .03.113.187.187 0 0 1-.056.135.197.197 0 0 1-.144.056h-1.241c-.057 0-.1-.017-.126-.052a.184.184 0 0 1 0-.226c.026-.034.069-.052.126-.052h1.029l-1.228-2.357a.203.203 0 0 1-.026-.104c0-.055.016-.103.05-.145a.168.168 0 0 1 .14-.063h1.307c.055 0 .096.017.124.052a.18.18 0 0 1 .041.113c0 .04-.014.078-.041.113M-15.437 0c0 .055-.018.096-.052.124a.18.18 0 0 1-.113.041.18.18 0 0 1-.113-.041c-.035-.028-.052-.069-.052-.124v-2.721c0-.055.017-.096.052-.122a.184.184 0 0 1 .226 0c.034.026.052.067.052.122V0zm-1.202-1.389a.158.158 0 0 1-.05.115.154.154 0 0 1-.115.05h-.62c-.056 0-.097-.017-.124-.052a.175.175 0 0 1 0-.226c.027-.034.068-.052.124-.052h.455v-.505a.476.476 0 0 0-.145-.348.48.48 0 0 0-.35-.145h-.043a.476.476 0 0 0-.349.145.476.476 0 0 0-.146.349v1.404c0 .066.013.129.039.188a.51.51 0 0 0 .263.262.476.476 0 0 0 .193.039h.043a.46.46 0 0 0 .337-.121.56.56 0 0 0 .158-.304c.009-.049.029-.085.061-.107a.18.18 0 0 1 .217.009c.035.028.052.067.052.12v.026a.808.808 0 0 1-.527.653.825.825 0 0 1-.298.054h-.043a.811.811 0 0 1-.583-.241.824.824 0 0 1-.242-.584v-1.402a.824.824 0 0 1 .504-.757.828.828 0 0 1 .321-.063h.043a.833.833 0 0 1 .584.237.824.824 0 0 1 .241.583v.673zm-2.469-1.43c-.07.112-.132.238-.185.38a2.874 2.874 0 0 0-.128 1.513c.032.166.074.32.126.462.052.141.112.269.18.382.068.112.138.205.21.277a.146.146 0 0 1 .048.105c0 .04-.018.078-.052.112-.041.032-.078.048-.113.048a.153.153 0 0 1-.112-.052 1.92 1.92 0 0 1-.255-.336 2.469 2.469 0 0 1-.205-.436 3.23 3.23 0 0 1-.14-.513 3 3 0 0 1-.051-.568 3.145 3.145 0 0 1 .192-1.1c.06-.161.13-.306.211-.437.081-.13.168-.24.26-.329.035-.035.071-.052.108-.052a.16.16 0 0 1 .118.052.133.133 0 0 1 .056.108.156.156 0 0 1-.051.109 1.346 1.346 0 0 0-.217.275m-2.451.21c-.024.032-.063.051-.115.057a.31.31 0 0 0-.175.072.212.212 0 0 0-.076.175v1.22h.234c.055 0 .096.017.124.052a.18.18 0 0 1 .041.113.18.18 0 0 1-.041.113c-.028.035-.069.052-.124.052h-.234V0c0 .055-.018.096-.052.124a.183.183 0 0 1-.113.041.18.18 0 0 1-.113-.041c-.035-.028-.052-.069-.052-.124v-.755h-.152c-.055 0-.096-.017-.124-.052a.18.18 0 0 1-.041-.113.18.18 0 0 1 .041-.113c.028-.035.069-.052.124-.052h.152v-1.228a.565.565 0 0 1 .568-.569c.058 0 .1.017.126.051a.18.18 0 0 1 .002.222m-1.716 1.702c0 .055-.017.096-.052.124a.18.18 0 0 1-.113.041.183.183 0 0 1-.113-.041c-.034-.028-.052-.069-.052-.124v-1.814c0-.055.018-.096.052-.122a.184.184 0 0 1 .226 0c.035.026.052.067.052.122v1.814zm0 .907c0 .055-.017.096-.052.124a.18.18 0 0 1-.113.041.183.183 0 0 1-.113-.041c-.034-.028-.052-.069-.052-.124v-.095c0-.055.018-.097.052-.124a.177.177 0 0 1 .226 0c.035.027.052.069.052.124V0zm-1.398-1.662h-.782v.218c0 .105.037.194.111.265a.366.366 0 0 0 .263.107h.043c.096 0 .18-.036.254-.107a.357.357 0 0 0 .111-.269v-.214zm.329.217a.698.698 0 0 1-.203.503.678.678 0 0 1-.224.148.726.726 0 0 1-.271.052h-.044a.694.694 0 0 1-.698-.699v-.746a.687.687 0 0 1 .204-.493.71.71 0 0 1 .494-.202h.044c.147 0 .277.038.388.115a.665.665 0 0 1 .245.298c.012.02.018.044.018.073a.16.16 0 0 1-.052.122.17.17 0 0 1-.117.048.157.157 0 0 1-.083-.024.159.159 0 0 1-.061-.081.433.433 0 0 0-.128-.156.335.335 0 0 0-.21-.065h-.044a.355.355 0 0 0-.26.108.353.353 0 0 0-.109.258v.22h.947c.046 0 .085.017.117.05a.16.16 0 0 1 .047.115v.356zm-2.483-.739a.355.355 0 0 0-.108-.26.363.363 0 0 0-.265-.108h-.039a.39.39 0 0 0-.258.091.307.307 0 0 0-.111.251v.805c0 .101.037.182.111.242a.39.39 0 0 0 .258.091h.039a.363.363 0 0 0 .265-.108.355.355 0 0 0 .108-.26v-.744zm.33.743a.686.686 0 0 1-.204.495.695.695 0 0 1-.499.204h-.03a.63.63 0 0 1-.217-.037.358.358 0 0 1-.161-.106V0c0 .055-.017.096-.052.124a.18.18 0 0 1-.113.041.183.183 0 0 1-.113-.041c-.034-.028-.052-.069-.052-.124v-2.73c0-.052.018-.09.052-.115a.192.192 0 0 1 .217-.006.13.13 0 0 1 .057.097.417.417 0 0 1 .141-.088.6.6 0 0 1 .232-.04h.039a.714.714 0 0 1 .647.421.671.671 0 0 1 .056.274v.746zm-2.148.486a.434.434 0 0 1-.202.163.663.663 0 0 1-.488.007.216.216 0 0 1-.074-.044.128.128 0 0 1-.06.067.185.185 0 0 1-.083.02.187.187 0 0 1-.115-.043.148.148 0 0 1-.054-.122v-1.805c0-.058.017-.101.052-.128a.176.176 0 0 1 .113-.042c.04 0 .078.014.113.042.034.027.052.07.052.128v1.349c0 .035.003.07.008.105a.225.225 0 0 0 .039.093.23.23 0 0 0 .087.067.39.39 0 0 0 .157.026.226.226 0 0 0 .128-.032.63.63 0 0 0 .071-.059.186.186 0 0 1 .135-.061c.043 0 .081.015.113.044a.145.145 0 0 1 .047.112.21.21 0 0 1-.039.113m-2.314-1.228a.347.347 0 0 0-.111-.262.364.364 0 0 0-.262-.107h-.039a.412.412 0 0 0-.267.083.269.269 0 0 0-.102.221v.035c0 .075.025.133.076.173a.554.554 0 0 0 .193.096c.078.023.163.041.254.054.091.013.177.03.258.05v-.343zm.549-.436c-.021.03-.057.05-.106.059-.075.014-.113.062-.113.143v1.006a.65.65 0 0 1-.195.474.678.678 0 0 1-.486.195h-.031a.852.852 0 0 1-.178-.02.683.683 0 0 1-.34-.188.646.646 0 0 1-.128-.196.15.15 0 0 1-.018-.078c0-.046.018-.083.052-.11a.178.178 0 0 1 .196-.022.156.156 0 0 1 .065.067c.04.072.087.127.139.163a.368.368 0 0 0 .212.054h.031a.402.402 0 0 0 .247-.078c.069-.052.104-.143.104-.273l-.002-.04a.065.065 0 0 0-.011-.034c-.017-.023-.057-.041-.119-.054a9.482 9.482 0 0 0-.215-.042 3.33 3.33 0 0 1-.256-.056.938.938 0 0 1-.248-.102.496.496 0 0 1-.26-.458v-.052a.57.57 0 0 1 .219-.464.677.677 0 0 1 .224-.118.86.86 0 0 1 .256-.039h.039c.182 0 .338.057.469.17a.38.38 0 0 1 .113-.105.47.47 0 0 1 .182-.06c.003-.003.013-.005.03-.005.052 0 .092.017.119.05a.174.174 0 0 1 .042.115.165.165 0 0 1-.033.098m-2.338 1.178a.777.777 0 0 1-.056.31.618.618 0 0 1-.152.22.62.62 0 0 1-.221.128.864.864 0 0 1-.265.041h-.039a.652.652 0 0 1-.213-.035.418.418 0 0 1-.16-.095.146.146 0 0 1-.061.097.18.18 0 0 1-.222-.01.153.153 0 0 1-.052-.122v-1.814c0-.055.018-.096.052-.122a.184.184 0 0 1 .226 0c.035.026.052.067.052.122v1.28c0 .104.037.192.11.263a.365.365 0 0 0 .262.106h.038a.36.36 0 0 0 .264-.108.362.362 0 0 0 .107-.261v-1.28c0-.055.018-.096.053-.122a.19.19 0 0 1 .115-.039.18.18 0 0 1 .112.039c.033.026.05.067.05.122v1.28zm-2.485-.221h-.781v.218a.368.368 0 0 0 .373.372h.043c.096 0 .18-.036.254-.107a.357.357 0 0 0 .111-.269v-.214zm.33.217a.717.717 0 0 1-.204.503.668.668 0 0 1-.224.148.726.726 0 0 1-.271.052h-.044a.694.694 0 0 1-.698-.699v-.746a.687.687 0 0 1 .204-.493.71.71 0 0 1 .494-.202h.044c.147 0 .277.038.388.115a.665.665 0 0 1 .245.298c.012.02.018.044.018.073a.16.16 0 0 1-.052.122.17.17 0 0 1-.117.048.157.157 0 0 1-.083-.024.159.159 0 0 1-.061-.081.423.423 0 0 0-.128-.156.335.335 0 0 0-.21-.065h-.044a.355.355 0 0 0-.26.108.352.352 0 0 0-.108.258v.22h.946c.046 0 .085.017.117.05a.161.161 0 0 1 .048.115v.356zm-2.168.009a.798.798 0 0 1-.056.31.598.598 0 0 1-.378.343.858.858 0 0 1-.264.041h-.039a.686.686 0 0 1-.302-.067.776.776 0 0 1-.237-.18.76.76 0 0 1-.236.18.686.686 0 0 1-.302.067h-.039a.641.641 0 0 1-.212-.035.415.415 0 0 1-.161-.095.146.146 0 0 1-.061.097.173.173 0 0 1-.217-.01.15.15 0 0 1-.052-.122v-1.814c0-.055.017-.096.052-.122a.184.184 0 0 1 .226 0c.035.026.052.067.052.122v1.315c0 .101.037.182.113.243a.4.4 0 0 0 .26.091h.039a.37.37 0 0 0 .265-.104.358.358 0 0 0 .108-.269v-1.267c0-.058.018-.101.053-.128a.174.174 0 0 1 .112-.042c.041 0 .079.014.113.042.035.027.052.07.052.128v1.267c0 .107.036.196.109.267.072.071.16.106.265.106h.039c.109 0 .199-.03.266-.091.068-.061.102-.152.102-.273v-1.285c0-.055.018-.096.053-.122a.182.182 0 0 1 .225 0c.035.026.052.067.052.122v1.285zm-3.323 0a.78.78 0 0 1-.057.31.586.586 0 0 1-.377.343.86.86 0 0 1-.265.041h-.039a.69.69 0 0 1-.302-.067.76.76 0 0 1-.236-.18.764.764 0 0 1-.237.18.682.682 0 0 1-.301.067h-.039a.643.643 0 0 1-.213-.035.422.422 0 0 1-.161-.095.145.145 0 0 1-.06.097.173.173 0 0 1-.217-.01.15.15 0 0 1-.052-.122v-1.814c0-.055.017-.096.052-.122a.182.182 0 0 1 .225 0c.035.026.052.067.052.122v1.315c0 .101.038.182.113.243a.401.401 0 0 0 .261.091h.039a.368.368 0 0 0 .264-.104.355.355 0 0 0 .109-.269v-1.267c0-.058.017-.101.052-.128a.176.176 0 0 1 .113-.042c.04 0 .078.014.113.042.034.027.052.07.052.128v1.267a.365.365 0 0 0 .373.373h.039c.11 0 .199-.03.267-.091s.102-.152.102-.273v-1.285c0-.055.017-.096.052-.122a.184.184 0 0 1 .226 0c.035.026.052.067.052.122v1.285zm-3.806-.747a.347.347 0 0 0-.111-.262.364.364 0 0 0-.262-.107h-.039a.412.412 0 0 0-.267.083.269.269 0 0 0-.102.221v.035c0 .075.025.133.076.173.05.041.115.073.193.096.078.023.163.041.254.054.091.013.177.03.258.05v-.343zm.549-.436a.16.16 0 0 1-.106.059c-.076.014-.113.062-.113.143v1.006a.65.65 0 0 1-.195.474.678.678 0 0 1-.486.195h-.031a.852.852 0 0 1-.178-.02.67.67 0 0 1-.34-.188.668.668 0 0 1-.129-.196.161.161 0 0 1-.017-.078c0-.046.017-.083.052-.11a.178.178 0 0 1 .196-.022.156.156 0 0 1 .065.067c.04.072.086.127.139.163a.366.366 0 0 0 .212.054h.031a.402.402 0 0 0 .247-.078c.069-.052.104-.143.104-.273l-.002-.04a.076.076 0 0 0-.011-.034c-.017-.023-.057-.041-.119-.054a10.708 10.708 0 0 0-.215-.042 3.23 3.23 0 0 1-.256-.056.938.938 0 0 1-.248-.102.496.496 0 0 1-.26-.458v-.052a.57.57 0 0 1 .219-.464.677.677 0 0 1 .224-.118.86.86 0 0 1 .256-.039h.039c.182 0 .338.057.469.17a.377.377 0 0 1 .112-.105.474.474 0 0 1 .183-.06c.003-.003.013-.005.03-.005.052 0 .092.017.119.05a.174.174 0 0 1 .042.115.165.165 0 0 1-.033.098m-2.29.361a.578.578 0 0 1-.085.333.6.6 0 0 1-.208.188 1.037 1.037 0 0 1-.272.1 7.39 7.39 0 0 0-.271.065.74.74 0 0 0-.208.087c-.057.036-.085.091-.085.166v.013c.003.064.036.119.1.165a.471.471 0 0 0 .278.069h.017a.532.532 0 0 0 .23-.041l.152-.076a.22.22 0 0 1 .095-.026c.047 0 .084.016.113.048a.155.155 0 0 1 .044.108.158.158 0 0 1-.061.128.66.66 0 0 1-.198.116 1.186 1.186 0 0 1-.164.051.888.888 0 0 1-.207.022h-.017c-.069 0-.145-.01-.228-.028a.783.783 0 0 1-.23-.093.61.61 0 0 1-.18-.171.45.45 0 0 1-.074-.262c0-.136.028-.241.085-.314a.573.573 0 0 1 .208-.171c.083-.041.173-.07.271-.089a2.46 2.46 0 0 0 .272-.067.636.636 0 0 0 .208-.106c.056-.045.085-.113.085-.206v-.013c-.003-.072-.04-.138-.111-.199a.462.462 0 0 0-.306-.091h-.022a.45.45 0 0 0-.247.083.83.83 0 0 0-.208.19.16.16 0 0 1-.07.059.216.216 0 0 1-.078.015.178.178 0 0 1-.117-.043.144.144 0 0 1-.052-.117.39.39 0 0 1 .021-.083.737.737 0 0 1 .135-.181.823.823 0 0 1 .182-.136.995.995 0 0 1 .211-.086.821.821 0 0 1 .215-.031h.026c.089 0 .179.013.269.039.089.026.17.064.243.115.072.051.13.113.173.188a.513.513 0 0 1 .066.265v.017zm-2.223 1.351c0 .055-.018.096-.053.124a.178.178 0 0 1-.112.041.18.18 0 0 1-.113-.041c-.035-.028-.052-.069-.052-.124v-1.277a.356.356 0 0 0-.109-.26.36.36 0 0 0-.265-.108h-.039a.355.355 0 0 0-.26.108.355.355 0 0 0-.108.26v1.277c0 .055-.018.096-.053.124a.178.178 0 0 1-.112.041.18.18 0 0 1-.113-.041c-.035-.028-.052-.069-.052-.124v-1.28c0-.122.018-.226.056-.313a.606.606 0 0 1 .152-.215.62.62 0 0 1 .223-.125.857.857 0 0 1 .267-.042h.039a.67.67 0 0 1 .213.033c.067.022.12.054.161.095a.143.143 0 0 1 .06-.097.195.195 0 0 1 .105-.031c.04 0 .078.014.112.042a.142.142 0 0 1 .053.119v1.814zm-2.127-1.675c-.027.034-.069.052-.124.052h-1.093l1.232 2.365a.24.24 0 0 1 .031.113.194.194 0 0 1-.2.191h-1.241c-.058 0-.1-.017-.126-.052a.184.184 0 0 1 0-.226c.026-.034.068-.052.126-.052h1.028l-1.228-2.357a.228.228 0 0 1 .024-.249.169.169 0 0 1 .141-.063h1.306c.055 0 .097.017.124.052a.18.18 0 0 1 .041.113c0 .04-.014.078-.041.113" style="fill:#da1c23;fill-opacity:1;fill-rule:nonzero;stroke:none" transform="matrix(1.25 0 0 -1.25 104.39 17.824)"/><path d="M0 0h-.781v.219c0 .105.037.193.111.264A.366.366 0 0 0-.408.59h.043A.36.36 0 0 0-.11.483.36.36 0 0 0 0 .214V0zm.33.217a.7.7 0 0 1-.427.651.712.712 0 0 1-.272.052h-.043A.686.686 0 0 1-.907.716a.695.695 0 0 1-.204-.495v-.746a.687.687 0 0 1 .204-.493.734.734 0 0 1 .224-.148.686.686 0 0 1 .271-.054h.043a.668.668 0 0 1 .634.413c.011.02.017.044.017.073 0 .05-.017.09-.052.122a.17.17 0 0 1-.117.048.157.157 0 0 1-.083-.024.152.152 0 0 1-.06-.081.446.446 0 0 0-.129-.156.335.335 0 0 0-.21-.065h-.043a.359.359 0 0 0-.261.108.352.352 0 0 0-.108.258v.22h.946c.046 0 .085.017.117.05a.161.161 0 0 1 .048.115v.356zm-2.079-1.16c-.026.035-.068.053-.125.053a.25.25 0 0 0-.17.074.23.23 0 0 0-.069.169v2.309c0 .055-.017.096-.052.124a.18.18 0 0 1-.113.041.183.183 0 0 1-.113-.041c-.035-.028-.052-.069-.052-.124V-.651a.574.574 0 0 1 .165-.404.563.563 0 0 1 .404-.165c.057 0 .099.017.125.051a.18.18 0 0 1 .039.112.187.187 0 0 1-.039.114m-1.933.422a.35.35 0 0 0-.111-.263.367.367 0 0 0-.262-.106h-.039a.412.412 0 0 0-.267.083.269.269 0 0 0-.102.221v.035c0 .075.025.133.076.173.05.041.115.073.193.096.078.023.163.041.254.054.091.013.177.03.258.05v-.343zm.549-.436a.156.156 0 0 1-.106.058c-.076.015-.113.063-.113.144V.252a.667.667 0 0 1-.681.668h-.031a.85.85 0 0 1-.178-.019.674.674 0 0 1-.341-.189.672.672 0 0 1-.128-.196.161.161 0 0 1-.017-.078c0-.046.017-.083.052-.11a.176.176 0 0 1 .195-.022.153.153 0 0 1 .066.067c.04.073.086.127.138.163a.369.369 0 0 0 .213.054h.031a.402.402 0 0 0 .247-.078c.069-.052.104-.143.104-.273L-3.684.2a.08.08 0 0 0-.011-.035c-.017-.023-.057-.041-.119-.054a10.708 10.708 0 0 0-.215-.042 3.23 3.23 0 0 1-.256-.056.938.938 0 0 1-.248-.102.496.496 0 0 1-.26-.458v-.052a.57.57 0 0 1 .061-.269.608.608 0 0 1 .382-.313.86.86 0 0 1 .256-.039h.039c.182 0 .338.057.469.169a.387.387 0 0 1 .112-.104.474.474 0 0 1 .183-.06c.002-.003.013-.005.03-.005.052 0 .092.017.119.05a.174.174 0 0 1 .042.115.165.165 0 0 1-.033.098M-5.471.221a.803.803 0 0 1-.056.311.636.636 0 0 1-.152.219.615.615 0 0 1-.222.128.853.853 0 0 1-.264.041h-.039a.647.647 0 0 1-.213-.035.422.422 0 0 1-.161-.095.15.15 0 0 1-.06.098.187.187 0 0 1-.104.032.179.179 0 0 1-.118-.043.153.153 0 0 1-.052-.122v-1.814c0-.055.018-.096.052-.122a.184.184 0 0 1 .226 0c.035.026.052.067.052.122v1.28c0 .105.037.192.11.263a.364.364 0 0 0 .261.106h.039a.357.357 0 0 0 .263-.108.357.357 0 0 0 .108-.261v-1.28c0-.055.018-.096.053-.122a.187.187 0 0 1 .114-.039c.041 0 .079.013.113.039.033.026.05.067.05.122v1.28zm-2.524-.743a.355.355 0 0 0-.108-.26.359.359 0 0 0-.261-.108h-.039a.363.363 0 0 0-.265.108.355.355 0 0 0-.108.26v.744c0 .101.036.188.108.26a.357.357 0 0 0 .261.108h.043a.359.359 0 0 0 .261-.108.355.355 0 0 0 .108-.26v-.744zm.33.743a.695.695 0 0 1-.699.699h-.043a.686.686 0 0 1-.495-.204.695.695 0 0 1-.204-.495v-.746a.687.687 0 0 1 .204-.493.734.734 0 0 1 .224-.148.686.686 0 0 1 .271-.054h.043c.096 0 .186.018.271.054a.7.7 0 0 1 .374.367.687.687 0 0 1 .054.274v.746zm-2.218.534c0 .055-.017.096-.052.124a.18.18 0 0 1-.113.041.183.183 0 0 1-.113-.041c-.034-.028-.052-.069-.052-.124v-1.814c0-.055.018-.096.052-.122a.184.184 0 0 1 .226 0c.035.026.052.067.052.122V.755zm0 .907c0 .055-.017.096-.052.124a.18.18 0 0 1-.113.041.183.183 0 0 1-.113-.041c-.034-.028-.052-.069-.052-.124v-.095c0-.055.018-.097.052-.124a.183.183 0 0 1 .113-.041.18.18 0 0 1 .113.041c.035.027.052.069.052.124v.095zm-1.068-2.609c-.025.032-.063.051-.115.057a.316.316 0 0 0-.176.072.215.215 0 0 0-.076.175v1.22h.235c.055 0 .096.018.123.052a.178.178 0 0 1 .042.113.176.176 0 0 1-.042.113c-.027.035-.068.052-.123.052h-.235v.755c0 .055-.017.096-.052.124a.179.179 0 0 1-.113.041.178.178 0 0 1-.112-.041c-.035-.028-.052-.069-.052-.124V.907h-.152c-.055 0-.097-.017-.124-.052a.175.175 0 0 1 0-.226c.027-.034.069-.052.124-.052h.152V-.651a.574.574 0 0 1 .164-.404.567.567 0 0 1 .404-.165c.058 0 .1.017.126.051a.18.18 0 0 1 .002.222m-2.019.426a.35.35 0 0 0-.111-.263.37.37 0 0 0-.263-.106h-.038a.412.412 0 0 0-.267.083.269.269 0 0 0-.102.221v.035c0 .075.025.133.076.173.05.041.115.073.193.096.078.023.162.041.254.054.091.013.177.03.258.05v-.343zm.549-.436a.156.156 0 0 1-.107.058c-.075.015-.112.063-.112.144V.252a.66.66 0 0 1-.413.616.69.69 0 0 1-.269.052h-.03a.85.85 0 0 1-.178-.019.674.674 0 0 1-.341-.189.672.672 0 0 1-.128-.196.161.161 0 0 1-.017-.078c0-.046.017-.083.052-.11a.176.176 0 0 1 .195-.022.15.15 0 0 1 .065.067.476.476 0 0 0 .139.163.369.369 0 0 0 .213.054h.03a.403.403 0 0 0 .248-.078c.069-.052.104-.143.104-.273L-12.972.2a.08.08 0 0 0-.011-.035c-.018-.023-.057-.041-.12-.054a9.304 9.304 0 0 0-.214-.042 3.23 3.23 0 0 1-.256-.056.925.925 0 0 1-.248-.102.575.575 0 0 1-.186-.178.489.489 0 0 1-.074-.28v-.052a.582.582 0 0 1 .219-.465.67.67 0 0 1 .223-.117.866.866 0 0 1 .257-.039h.038c.183 0 .339.057.469.169a.404.404 0 0 1 .295-.164c.003-.003.013-.005.031-.005.052 0 .092.017.119.05a.173.173 0 0 1 .009.213M-14.759.221a.785.785 0 0 1-.057.311.62.62 0 0 1-.151.219.615.615 0 0 1-.222.128.858.858 0 0 1-.264.041h-.039a.643.643 0 0 1-.213-.035.422.422 0 0 1-.161-.095.15.15 0 0 1-.061.098.182.182 0 0 1-.221-.011.153.153 0 0 1-.052-.122v-1.814c0-.055.018-.096.052-.122a.184.184 0 0 1 .226 0c.035.026.052.067.052.122v1.28c0 .105.037.192.11.263a.36.36 0 0 0 .261.106h.039a.358.358 0 0 0 .263-.108.357.357 0 0 0 .108-.261v-1.28c0-.055.018-.096.053-.122a.187.187 0 0 1 .114-.039.18.18 0 0 1 .112.039c.034.026.051.067.051.122v1.28zm-2.044.486a.44.44 0 0 1-.202.163.666.666 0 0 1-.488.007.194.194 0 0 1-.074-.044.137.137 0 0 1-.061.068.18.18 0 0 1-.197-.024.148.148 0 0 1-.054-.122v-1.806c0-.057.017-.1.052-.128a.179.179 0 0 1 .113-.041c.04 0 .078.014.112.041.035.028.052.071.052.128v1.35c0 .035.003.07.009.105a.225.225 0 0 0 .039.093c.02.027.049.05.087.067.037.018.09.026.156.026a.222.222 0 0 0 .128-.032.654.654 0 0 0 .072-.059.187.187 0 0 1 .134-.061c.044 0 .081.015.113.044a.144.144 0 0 1 .048.113.21.21 0 0 1-.039.112M-18.912 0h-.782v.219c0 .105.037.193.111.264a.366.366 0 0 0 .263.107h.043c.096 0 .18-.036.254-.107a.357.357 0 0 0 .111-.269V0zm.33.217a.717.717 0 0 1-.204.503.707.707 0 0 1-.495.2h-.044a.69.69 0 0 1-.644-.427.695.695 0 0 1-.054-.272v-.746a.687.687 0 0 1 .204-.493.69.69 0 0 1 .494-.202h.044c.147 0 .277.038.388.115a.665.665 0 0 1 .245.298c.012.02.018.044.018.073a.16.16 0 0 1-.052.122.17.17 0 0 1-.117.048.157.157 0 0 1-.083-.024.159.159 0 0 1-.061-.081.433.433 0 0 0-.128-.156.335.335 0 0 0-.21-.065h-.044a.355.355 0 0 0-.26.108.353.353 0 0 0-.109.258v.22h.947c.046 0 .085.017.117.05a.161.161 0 0 1 .048.115v.356zM-20.66-.947c-.025.032-.063.051-.115.057a.31.31 0 0 0-.176.072.212.212 0 0 0-.076.175v1.22h.234c.055 0 .096.018.124.052a.183.183 0 0 1 .041.113.18.18 0 0 1-.041.113c-.028.035-.069.052-.124.052h-.234v.755c0 .055-.018.096-.052.124a.183.183 0 0 1-.113.041.18.18 0 0 1-.113-.041c-.035-.028-.052-.069-.052-.124V.907h-.152c-.055 0-.096-.017-.124-.052a.18.18 0 0 1-.041-.113c0-.04.014-.078.041-.113.028-.034.069-.052.124-.052h.152V-.651a.574.574 0 0 1 .165-.404.563.563 0 0 1 .404-.165c.057 0 .099.017.125.051a.18.18 0 0 1 .039.112.18.18 0 0 1-.036.11M-22.286.221a.785.785 0 0 1-.057.311.61.61 0 0 1-.373.347.86.86 0 0 1-.265.041h-.039a.641.641 0 0 1-.212-.035.422.422 0 0 1-.161-.095.147.147 0 0 1-.061.098.182.182 0 0 1-.221-.011.15.15 0 0 1-.052-.122v-1.814c0-.055.017-.096.052-.122a.184.184 0 0 1 .226 0c.034.026.052.067.052.122v1.28c0 .105.037.192.11.263a.36.36 0 0 0 .261.106h.039a.358.358 0 0 0 .263-.108.357.357 0 0 0 .108-.261v-1.28c0-.055.018-.096.053-.122a.187.187 0 0 1 .114-.039.18.18 0 0 1 .112.039c.034.026.051.067.051.122v1.28zm-2.318 1.441c0 .055-.017.096-.052.124a.183.183 0 0 1-.113.041.18.18 0 0 1-.113-.041c-.035-.028-.052-.069-.052-.124v-2.721c0-.055.017-.096.052-.122a.184.184 0 0 1 .226 0c.035.026.052.067.052.122v2.721zm-2.474-.955a.434.434 0 0 1-.202.163.663.663 0 0 1-.488.007.202.202 0 0 1-.074-.044.13.13 0 0 1-.06.068.181.181 0 0 1-.198-.024.148.148 0 0 1-.054-.122v-1.806c0-.057.017-.1.052-.128a.18.18 0 0 1 .113-.041c.04 0 .078.014.113.041.034.028.052.071.052.128v1.35c0 .035.003.07.008.105a.215.215 0 0 0 .126.16c.038.018.09.026.157.026a.226.226 0 0 0 .128-.032.63.63 0 0 0 .071-.059.19.19 0 0 1 .135-.061c.043 0 .081.015.113.044a.147.147 0 0 1 .047.113.21.21 0 0 1-.039.112m-1.85.048c0 .055-.018.096-.052.124a.183.183 0 0 1-.113.041.18.18 0 0 1-.113-.041c-.035-.027-.052-.069-.052-.123V-.522a.354.354 0 0 0-.109-.26.36.36 0 0 0-.264-.108h-.039a.356.356 0 0 0-.261.108.357.357 0 0 0-.108.26V.756c0 .054-.018.096-.052.123a.183.183 0 0 1-.113.041.18.18 0 0 1-.113-.041c-.035-.028-.052-.069-.052-.124v-1.28c0-.122.019-.226.056-.313a.606.606 0 0 1 .152-.215.632.632 0 0 1 .224-.126.877.877 0 0 1 .267-.041h.039c.075 0 .146.011.212.033.067.022.12.054.161.095a.141.141 0 0 1 .061-.097.183.183 0 0 1 .217.01.147.147 0 0 1 .052.12V.755zm-.959.907c0 .055-.018.096-.053.124a.178.178 0 0 1-.112.041.18.18 0 0 1-.113-.041c-.035-.028-.052-.069-.052-.124v-.095c0-.055.017-.097.052-.124a.18.18 0 0 1 .113-.041c.04 0 .078.014.112.041.035.027.053.069.053.124v.095zm.798 0c0 .055-.018.096-.054.124a.19.19 0 0 1-.115.041.171.171 0 0 1-.111-.041c-.033-.028-.05-.069-.05-.124v-.095c0-.055.018-.097.052-.124a.183.183 0 0 1 .113-.041.18.18 0 0 1 .113.041c.035.027.052.069.052.124v.095zm-1.931.113c-.028.035-.069.052-.124.052a.561.561 0 0 1-.401-.163.5.5 0 0 1-.117-.182.616.616 0 0 1-.042-.228V.907h-.095c-.055 0-.096-.017-.124-.052a.18.18 0 0 1-.041-.113c0-.04.014-.078.041-.113.028-.034.069-.052.124-.052h.095v-1.636c0-.055.018-.096.052-.122a.184.184 0 0 1 .226 0c.035.026.052.067.052.122V.577h.204c.055 0 .096.018.124.052a.183.183 0 0 1 .041.113.184.184 0 0 1-.039.113c-.026.035-.068.052-.126.052h-.204v.347c0 .067.021.124.063.172a.214.214 0 0 0 .167.071c.055 0 .096.018.124.052a.183.183 0 0 1 .041.113.18.18 0 0 1-.041.113" style="fill:#da1c23;fill-opacity:1;fill-rule:nonzero;stroke:none" transform="matrix(1.25 0 0 -1.25 79.483 13.972)"/><path d="M0 0c-.024.032-.063.051-.115.057a.313.313 0 0 0-.176.072.214.214 0 0 0-.075.175v1.22h.234c.054 0 .096.017.123.052a.176.176 0 0 1 .042.113c0 .04-.014.078-.042.113-.027.035-.069.052-.123.052h-.234v.755c0 .055-.018.096-.053.124a.178.178 0 0 1-.112.041.18.18 0 0 1-.113-.041c-.035-.028-.052-.069-.052-.124v-.755h-.152c-.055 0-.096-.017-.124-.052a.183.183 0 0 1-.041-.113.18.18 0 0 1 .041-.113c.028-.035.069-.052.124-.052h.152V.296a.574.574 0 0 1 .165-.404.566.566 0 0 1 .403-.165c.058 0 .1.017.126.051A.18.18 0 0 1 0 0m-1.424 2.722c-.027.035-.068.052-.123.052a.584.584 0 0 1-.224-.043.528.528 0 0 1-.295-.302.636.636 0 0 1-.041-.228v-.347h-.095c-.055 0-.096-.017-.124-.052a.177.177 0 0 1 0-.226c.028-.035.069-.052.124-.052h.095V-.112c0-.055.018-.096.052-.122a.184.184 0 0 1 .226 0c.035.026.052.067.052.122v1.636h.204c.055 0 .096.017.123.052a.176.176 0 0 1 .003.226c-.026.035-.068.052-.126.052h-.204v.347c0 .067.021.124.063.172a.214.214 0 0 0 .167.071c.055 0 .096.017.123.052a.176.176 0 0 1 .042.113.176.176 0 0 1-.042.113M-3.427.426a.35.35 0 0 0-.111-.263.365.365 0 0 0-.263-.106h-.039a.41.41 0 0 0-.266.083.268.268 0 0 0-.103.221v.035c0 .075.026.133.077.173.05.041.114.073.193.096.078.023.163.041.254.054.091.013.177.03.258.05V.426zm.549-.436a.156.156 0 0 1-.107.058c-.075.015-.112.063-.112.144v1.007a.66.66 0 0 1-.413.616.688.688 0 0 1-.268.052h-.031a.852.852 0 0 1-.178-.02.683.683 0 0 1-.341-.188.677.677 0 0 1-.127-.196.15.15 0 0 1-.018-.078c0-.046.018-.083.052-.111a.18.18 0 0 1 .113-.041.18.18 0 0 1 .082.02.15.15 0 0 1 .065.067.477.477 0 0 0 .14.163.363.363 0 0 0 .212.054h.031a.402.402 0 0 0 .247-.078c.069-.052.104-.143.104-.273l-.002-.04a.076.076 0 0 0-.011-.034c-.018-.023-.057-.041-.119-.055a10.166 10.166 0 0 0-.216-.041A3.437 3.437 0 0 1-4.031.96a.946.946 0 0 1-.247-.102.496.496 0 0 1-.26-.458V.348a.582.582 0 0 1 .219-.464.663.663 0 0 1 .223-.118.87.87 0 0 1 .256-.039h.039a.69.69 0 0 1 .469.17.393.393 0 0 1 .113-.105.47.47 0 0 1 .182-.06c.003-.003.013-.005.031-.005.052 0 .091.017.119.05a.173.173 0 0 1 .009.213m-2.328 1.178a.686.686 0 0 1-.204.495.7.7 0 0 1-.495.204h-.035a.69.69 0 0 1-.217-.035.383.383 0 0 1-.16-.095v.872c0 .055-.018.096-.052.124a.183.183 0 0 1-.113.041.183.183 0 0 1-.113-.041c-.035-.028-.052-.069-.052-.124V-.112c0-.055.017-.096.052-.122a.187.187 0 0 1 .113-.039c.04 0 .078.013.113.039.034.026.052.067.052.122V1.19c0 .055.012.104.035.147a.346.346 0 0 0 .215.178.477.477 0 0 0 .284 0 .383.383 0 0 0 .126-.067.33.33 0 0 0 .089-.115.395.395 0 0 0 .032-.165v-1.28c0-.055.017-.096.052-.122a.187.187 0 0 1 .113-.039c.04 0 .078.013.113.039.034.026.052.067.052.122v1.28zM-7.393.554a.177.177 0 0 1-.113.041.166.166 0 0 1-.111-.041c-.033-.027-.051-.07-.054-.128a.4.4 0 0 0-.113-.26.339.339 0 0 0-.256-.109h-.039a.363.363 0 0 0-.265.108.355.355 0 0 0-.108.26v.744c0 .101.036.188.108.26a.357.357 0 0 0 .26.108h.044a.35.35 0 0 0 .256-.104.4.4 0 0 0 .113-.269c.003-.055.021-.096.054-.122a.175.175 0 0 1 .111-.039c.04 0 .078.014.113.041.034.028.052.069.052.124a.655.655 0 0 1-.057.271.696.696 0 0 1-.642.428h-.044a.702.702 0 0 1-.642-.423.674.674 0 0 1-.056-.276V.422a.687.687 0 0 1 .204-.493.714.714 0 0 1 .494-.202h.044a.69.69 0 0 1 .495.205.69.69 0 0 1 .204.494c0 .058-.018.101-.052.128M-9.448.351a.578.578 0 0 1-.084.333.595.595 0 0 1-.209.188 1.03 1.03 0 0 1-.271.1 6.926 6.926 0 0 0-.271.065.747.747 0 0 0-.209.087c-.056.036-.084.091-.084.166v.013c.003.064.036.119.1.165a.468.468 0 0 0 .277.069h.018a.524.524 0 0 0 .229-.041l.153-.076a.216.216 0 0 1 .095-.026c.046 0 .084.016.113.048a.154.154 0 0 1 .043.108c0 .053-.02.095-.06.128a.692.692 0 0 1-.198.116 1.248 1.248 0 0 1-.165.051.88.88 0 0 1-.206.022h-.017c-.07 0-.146-.009-.228-.028a.772.772 0 0 1-.23-.093.61.61 0 0 1-.18-.171.442.442 0 0 1-.074-.262c0-.136.028-.241.084-.314a.576.576 0 0 1 .209-.171c.082-.041.173-.07.271-.089.098-.019.189-.041.271-.067a.642.642 0 0 0 .209-.106c.056-.045.085-.113.085-.206V.347C-9.78.275-9.818.209-9.888.148c-.071-.061-.173-.091-.306-.091h-.022a.448.448 0 0 0-.247.083.801.801 0 0 0-.209.191.156.156 0 0 1-.069.058.216.216 0 0 1-.078.015.179.179 0 0 1-.118-.043.147.147 0 0 1-.052-.117.42.42 0 0 1 .022-.083.8.8 0 0 1 .317-.317.986.986 0 0 1 .21-.086.827.827 0 0 1 .215-.031h.026c.09 0 .18.013.269.039a.8.8 0 0 1 .243.115.522.522 0 0 1 .239.452v.018zm-2.143-.347c-.026.036-.068.053-.126.053a.25.25 0 0 0-.17.074.23.23 0 0 0-.069.169v2.309c0 .055-.017.096-.052.124a.18.18 0 0 1-.113.041.183.183 0 0 1-.113-.041c-.034-.028-.052-.069-.052-.124V.296a.575.575 0 0 1 .165-.404.563.563 0 0 1 .404-.165c.058 0 .1.017.126.051a.18.18 0 0 1 .039.112.187.187 0 0 1-.039.114m-1.363 0c-.026.036-.068.053-.126.053a.246.246 0 0 0-.169.074.226.226 0 0 0-.07.169v2.309c0 .055-.017.096-.052.124a.179.179 0 0 1-.113.041.178.178 0 0 1-.112-.041c-.035-.028-.052-.069-.052-.124V.296a.574.574 0 0 1 .164-.404.567.567 0 0 1 .404-.165c.058 0 .1.017.126.051a.18.18 0 0 1 .039.112.187.187 0 0 1-.039.114m-1.763.943h-.781v.218c0 .105.037.194.111.265a.364.364 0 0 0 .262.107h.044c.095 0 .18-.036.253-.107a.357.357 0 0 0 .111-.269V.947zm.33.217a.7.7 0 0 1-.428.651.703.703 0 0 1-.271.052h-.043a.686.686 0 0 1-.495-.204.689.689 0 0 1-.204-.495V.422a.687.687 0 0 1 .204-.493.714.714 0 0 1 .495-.202h.043a.668.668 0 0 1 .634.413c.011.02.017.044.017.073 0 .05-.017.09-.052.122a.17.17 0 0 1-.117.048.157.157 0 0 1-.083-.024.152.152 0 0 1-.06-.081.443.443 0 0 0-.128-.156.34.34 0 0 0-.211-.065h-.043a.357.357 0 0 0-.261.108.352.352 0 0 0-.108.258v.22h.946c.046 0 .085.017.117.05a.161.161 0 0 1 .048.115v.356zm-2.105-.813a.578.578 0 0 1-.084.333.6.6 0 0 1-.208.188 1.037 1.037 0 0 1-.272.1 6.926 6.926 0 0 0-.271.065.74.74 0 0 0-.208.087c-.057.036-.085.091-.085.166v.013c.003.064.036.119.1.165a.471.471 0 0 0 .278.069h.017a.532.532 0 0 0 .23-.041l.152-.076a.22.22 0 0 1 .095-.026c.047 0 .084.016.113.048a.155.155 0 0 1 .044.108.158.158 0 0 1-.061.128.66.66 0 0 1-.198.116 1.186 1.186 0 0 1-.164.051.888.888 0 0 1-.207.022h-.017c-.069 0-.145-.009-.228-.028a.783.783 0 0 1-.23-.093.61.61 0 0 1-.18-.171.45.45 0 0 1-.074-.262c0-.136.028-.241.085-.314a.573.573 0 0 1 .208-.171c.083-.041.173-.07.271-.089a2.46 2.46 0 0 0 .272-.067.636.636 0 0 0 .208-.106c.056-.045.085-.113.085-.206V.347c-.003-.072-.04-.138-.111-.199-.071-.061-.173-.091-.306-.091h-.022a.45.45 0 0 0-.247.083.781.781 0 0 0-.208.191.164.164 0 0 1-.07.058.216.216 0 0 1-.078.015.178.178 0 0 1-.117-.043.144.144 0 0 1-.052-.117c0-.012.007-.039.022-.083a.708.708 0 0 1 .134-.181.823.823 0 0 1 .182-.136.995.995 0 0 1 .211-.086.821.821 0 0 1 .215-.031h.026c.089 0 .179.013.269.039.089.026.17.064.243.115.072.05.13.113.173.188a.512.512 0 0 1 .065.264v.018zm-2.493.596h-.781v.218c0 .105.037.194.111.265a.364.364 0 0 0 .262.107h.044c.095 0 .18-.036.253-.107a.357.357 0 0 0 .111-.269V.947zm.33.217a.685.685 0 0 1-.699.703h-.043a.686.686 0 0 1-.495-.204.689.689 0 0 1-.204-.495V.422a.687.687 0 0 1 .204-.493.714.714 0 0 1 .495-.202h.043a.668.668 0 0 1 .634.413c.011.02.017.044.017.073 0 .05-.017.09-.052.122a.168.168 0 0 1-.117.048.153.153 0 0 1-.082-.024.154.154 0 0 1-.061-.081.443.443 0 0 0-.128-.156.34.34 0 0 0-.211-.065h-.043a.355.355 0 0 0-.26.108.35.35 0 0 0-.109.258v.22h.946c.046 0 .085.017.117.05a.161.161 0 0 1 .048.115v.356zm-2.203.056a.157.157 0 0 1-.049.115.161.161 0 0 1-.115.05h-.621c-.055 0-.096-.017-.124-.052a.18.18 0 0 1-.041-.113c0-.04.014-.078.041-.113.028-.034.069-.052.124-.052h.456V.55a.476.476 0 0 0-.146-.348.476.476 0 0 0-.349-.145h-.044a.479.479 0 0 0-.349.145.476.476 0 0 0-.145.349v1.404c0 .066.013.129.039.188a.507.507 0 0 0 .262.262c.06.026.124.039.193.039h.044c.142 0 .254-.04.336-.121a.567.567 0 0 0 .159-.304.156.156 0 0 1 .06-.107.178.178 0 0 1 .217.009.142.142 0 0 1 .052.119v.027a.808.808 0 0 1-.527.653.823.823 0 0 1-.297.054h-.044a.819.819 0 0 1-.583-.241.824.824 0 0 1-.241-.584V.548a.812.812 0 0 1 .503-.758.835.835 0 0 1 .321-.063h.044a.828.828 0 0 1 .584.237c.073.074.132.16.175.26.044.1.065.208.065.324v.672zm-4.17-.273h-.781v.218a.368.368 0 0 0 .373.372h.043c.096 0 .18-.036.254-.107a.357.357 0 0 0 .111-.269V.947zm.33.217a.7.7 0 0 1-.428.651.707.707 0 0 1-.271.052h-.043a.695.695 0 0 1-.699-.699V.422a.687.687 0 0 1 .204-.493.71.71 0 0 1 .495-.202h.043c.147 0 .277.038.388.115a.668.668 0 0 1 .246.298c.011.02.017.044.017.073 0 .05-.017.09-.052.122a.17.17 0 0 1-.117.048.157.157 0 0 1-.083-.024.159.159 0 0 1-.061-.081.423.423 0 0 0-.128-.156.335.335 0 0 0-.21-.065h-.043a.357.357 0 0 0-.261.108.352.352 0 0 0-.108.258v.22h.946c.046 0 .085.017.117.05a.161.161 0 0 1 .048.115v.356zm-2.152.004a.686.686 0 0 1-.204.495.7.7 0 0 1-.494.204h-.035a.685.685 0 0 1-.217-.035.387.387 0 0 1-.161-.095v.872c0 .055-.017.096-.052.124a.179.179 0 0 1-.113.041.178.178 0 0 1-.112-.041c-.035-.028-.053-.069-.053-.124V-.112c0-.055.018-.096.053-.122a.182.182 0 0 1 .225 0c.035.026.052.067.052.122V1.19c0 .055.012.104.035.147a.36.36 0 0 0 .215.178.481.481 0 0 0 .284 0 .383.383 0 0 0 .126-.067.318.318 0 0 0 .089-.115.38.38 0 0 0 .032-.165v-1.28c0-.055.018-.096.053-.122a.182.182 0 0 1 .225 0c.035.026.052.067.052.122v1.28zm-2.229-.614a.175.175 0 0 1-.113.041.165.165 0 0 1-.11-.041c-.034-.027-.052-.07-.055-.128a.394.394 0 0 0-.113-.26.337.337 0 0 0-.256-.109h-.039a.36.36 0 0 0-.264.108.352.352 0 0 0-.109.26v.744c0 .101.036.188.109.26a.355.355 0 0 0 .26.108h.043a.348.348 0 0 0 .256-.104.395.395 0 0 0 .113-.269c.003-.055.021-.096.055-.122a.174.174 0 0 1 .223.002c.035.028.052.069.052.124a.67.67 0 0 1-.056.271.759.759 0 0 1-.15.224.681.681 0 0 1-.493.204h-.043a.686.686 0 0 1-.493-.202.711.711 0 0 1-.206-.497V.422a.687.687 0 0 1 .204-.493.714.714 0 0 1 .495-.202h.043a.696.696 0 0 1 .495.205.682.682 0 0 1 .204.494c0 .058-.017.101-.052.128m-2.055-.203a.578.578 0 0 1-.084.333.595.595 0 0 1-.209.188 1.017 1.017 0 0 1-.271.1 6.926 6.926 0 0 0-.271.065.74.74 0 0 0-.208.087c-.057.036-.085.091-.085.166v.013c.003.064.036.119.1.165a.47.47 0 0 0 .278.069h.017a.532.532 0 0 0 .23-.041l.152-.076a.22.22 0 0 1 .095-.026c.047 0 .084.016.113.048a.155.155 0 0 1 .044.108.158.158 0 0 1-.061.128.66.66 0 0 1-.198.116 1.186 1.186 0 0 1-.164.051.888.888 0 0 1-.207.022h-.017c-.069 0-.145-.009-.228-.028a.783.783 0 0 1-.23-.093.61.61 0 0 1-.18-.171.45.45 0 0 1-.074-.262c0-.136.028-.241.085-.314a.573.573 0 0 1 .208-.171c.083-.041.173-.07.271-.089a2.46 2.46 0 0 0 .272-.067.636.636 0 0 0 .208-.106c.056-.045.085-.113.085-.206V.347c-.003-.072-.04-.138-.111-.199-.071-.061-.173-.091-.306-.091h-.022a.45.45 0 0 0-.247.083.797.797 0 0 0-.208.191.164.164 0 0 1-.07.058.216.216 0 0 1-.078.015.178.178 0 0 1-.117-.043.144.144 0 0 1-.052-.117.39.39 0 0 1 .021-.083.737.737 0 0 1 .135-.181.823.823 0 0 1 .182-.136.995.995 0 0 1 .211-.086.821.821 0 0 1 .215-.031h.026c.089 0 .179.013.269.039.089.026.17.064.243.115.072.05.13.113.173.188a.512.512 0 0 1 .065.264v.018zM-33.273 0c-.024.032-.063.051-.115.057a.31.31 0 0 0-.175.072.212.212 0 0 0-.076.175v1.22h.234c.055 0 .096.017.124.052a.18.18 0 0 1 .041.113c0 .04-.014.078-.041.113-.028.035-.069.052-.124.052h-.234v.755c0 .055-.018.096-.052.124a.183.183 0 0 1-.113.041.18.18 0 0 1-.113-.041c-.035-.028-.052-.069-.052-.124v-.755h-.152c-.055 0-.096-.017-.124-.052a.183.183 0 0 1-.041-.113.18.18 0 0 1 .041-.113c.028-.035.069-.052.124-.052h.152V.296a.574.574 0 0 1 .165-.404.563.563 0 0 1 .403-.165c.058 0 .1.017.126.051a.18.18 0 0 1 .002.222m-1.683 1.702c0 .055-.018.096-.052.124a.183.183 0 0 1-.113.041.18.18 0 0 1-.113-.041c-.035-.028-.052-.069-.052-.124V.425a.357.357 0 0 0-.108-.26.363.363 0 0 0-.265-.108h-.039a.357.357 0 0 0-.261.108.357.357 0 0 0-.108.26v1.277c0 .055-.018.096-.052.124a.183.183 0 0 1-.113.041.18.18 0 0 1-.113-.041c-.035-.028-.052-.069-.052-.124V.422c0-.122.019-.226.056-.313a.62.62 0 0 1 .152-.215.615.615 0 0 1 .224-.125.848.848 0 0 1 .267-.042h.039c.075 0 .146.011.212.033.067.022.12.054.161.095a.144.144 0 0 1 .061-.097.192.192 0 0 1 .104-.031c.04 0 .078.014.113.042a.144.144 0 0 1 .052.119v1.814zm-2.465-.755h-.781v.218c0 .105.037.194.111.265a.364.364 0 0 0 .262.107h.044c.095 0 .18-.036.254-.107a.36.36 0 0 0 .11-.269V.947zm.33.217a.685.685 0 0 1-.699.703h-.043a.686.686 0 0 1-.495-.204.686.686 0 0 1-.204-.495V.422a.687.687 0 0 1 .204-.493.714.714 0 0 1 .495-.202h.043a.668.668 0 0 1 .634.413c.012.02.017.044.017.073 0 .05-.017.09-.052.122a.168.168 0 0 1-.117.048.153.153 0 0 1-.082-.024.154.154 0 0 1-.061-.081.443.443 0 0 0-.128-.156.34.34 0 0 0-.211-.065h-.043a.359.359 0 0 0-.261.108.352.352 0 0 0-.108.258v.22h.946c.046 0 .085.017.117.05a.161.161 0 0 1 .048.115v.356zm-2.534-.59a.48.48 0 0 0-.145-.35.507.507 0 0 0-.156-.106.47.47 0 0 0-.192-.039h-.536v2.339h.54a.47.47 0 0 0 .346-.145.53.53 0 0 0 .104-.157.472.472 0 0 0 .039-.193V.574zm.329 1.354a.785.785 0 0 1-.065.319.85.85 0 0 1-.175.26.845.845 0 0 1-.261.176.798.798 0 0 1-.319.065h-.703a.16.16 0 0 1-.115-.05.16.16 0 0 1-.05-.115V-.086a.16.16 0 0 1 .05-.115.16.16 0 0 1 .115-.05h.703a.828.828 0 0 1 .755.503.802.802 0 0 1 .065.322v1.354z" style="fill:#da1c23;fill-opacity:1;fill-rule:nonzero;stroke:none" transform="matrix(1.25 0 0 -1.25 91.002 9.227)"/></svg>